<svg width="11" height="11" viewBox="0 0 11 11" fill="none" xmlns="http://www.w3.org/2000/svg">
<path d="M5.76098 10.4827C8.36425 10.4827 10.4745 8.37244 10.4745 5.76918C10.4745 3.16591 8.36425 1.05568 5.76098 1.05568C3.15772 1.05568 1.04749 3.16591 1.04749 5.76918C1.04749 8.37244 3.15772 10.4827 5.76098 10.4827Z" stroke="#4D4D4D" stroke-width="0.707025" stroke-linecap="round" stroke-linejoin="round"/>
<path d="M5.76097 7.18306C6.136 7.18306 6.49567 7.03409 6.76086 6.7689C7.02604 6.50371 7.17502 6.14404 7.17502 5.76901C7.17502 5.39399 7.02604 5.03432 6.76086 4.76913C6.49567 4.50394 6.136 4.35497 5.76097 4.35497C5.38594 4.35497 5.02628 4.50394 4.76109 4.76913C4.4959 5.03432 4.34692 5.39399 4.34692 5.76901C4.34692 6.14404 4.4959 6.50371 4.76109 6.7689C5.02628 7.03409 5.38594 7.18306 5.76097 7.18306V7.18306Z" stroke="#4D4D4D" stroke-width="0.707025" stroke-linecap="round" stroke-linejoin="round"/>
<path d="M1.04749 5.76909H4.34694M7.17503 5.76909H10.4745" stroke="#4D4D4D" stroke-width="0.707025"/>
</svg>
