<svg width="20" height="20" viewBox="0 0 20 20" fill="none" xmlns="http://www.w3.org/2000/svg">
<path d="M17.1483 7.96491C17.7767 8.59326 17.7767 9.61202 17.1483 10.2404C16.52 10.8687 15.5012 10.8687 14.8729 10.2404C14.2445 9.61201 14.2445 8.59326 14.8729 7.96491C15.5012 7.33657 16.52 7.33657 17.1483 7.96491" stroke="black" stroke-opacity="0.7" stroke-width="1.19302" stroke-linecap="round" stroke-linejoin="round"/>
<path d="M11.9073 5.09274C12.8749 6.06026 12.8749 7.62893 11.9073 8.59647C10.9398 9.56399 9.37115 9.56399 8.40362 8.59647C7.4361 7.62894 7.4361 6.06027 8.40362 5.09274C9.37115 4.12521 10.9398 4.12521 11.9073 5.09274" stroke="black" stroke-opacity="0.7" stroke-width="1.19302" stroke-linecap="round" stroke-linejoin="round"/>
<path d="M5.43787 7.96491C6.06622 8.59326 6.06622 9.61202 5.43787 10.2404C4.80952 10.8687 3.79077 10.8687 3.16242 10.2404C2.53407 9.61201 2.53407 8.59326 3.16242 7.96491C3.79077 7.33657 4.80952 7.33657 5.43787 7.96491" stroke="black" stroke-opacity="0.7" stroke-width="1.19302" stroke-linecap="round" stroke-linejoin="round"/>
<path d="M18.9041 15.5016V14.6299C18.9041 13.5315 18.0141 12.6415 16.9158 12.6415H16.2787" stroke="black" stroke-opacity="0.7" stroke-width="1.19302" stroke-linecap="round" stroke-linejoin="round"/>
<path d="M1.40649 15.5016V14.6299C1.40649 13.5315 2.29649 12.6415 3.39486 12.6415H4.03194" stroke="black" stroke-opacity="0.7" stroke-width="1.19302" stroke-linecap="round" stroke-linejoin="round"/>
<path d="M14.4017 15.5018V14.2284C14.4017 12.691 13.1554 11.4447 11.618 11.4447H8.69192C7.15451 11.4447 5.9082 12.691 5.9082 14.2284V15.5018" stroke="black" stroke-opacity="0.7" stroke-width="1.19302" stroke-linecap="round" stroke-linejoin="round"/>
</svg>
