<svg width="9" height="10" viewBox="0 0 9 10" fill="none" xmlns="http://www.w3.org/2000/svg">
<path d="M8.19769 8.34836H0.950683C0.902075 8.34836 0.862305 8.38813 0.862305 8.43674V9.09958C0.862305 9.14818 0.902075 9.18795 0.950683 9.18795H8.19769C8.2463 9.18795 8.28607 9.14818 8.28607 9.09958V8.43674C8.28607 8.38813 8.2463 8.34836 8.19769 8.34836ZM8.19769 0.350143L0.950683 0.350143C0.902075 0.350143 0.862305 0.389914 0.862305 0.438522V1.10136C0.862305 1.14997 0.902075 1.18974 0.950683 1.18974L8.19769 1.18974C8.2463 1.18974 8.28607 1.14997 8.28607 1.10136V0.438522C8.28607 0.389914 8.2463 0.350143 8.19769 0.350143ZM5.66566 3.28872C5.73194 3.28872 5.7695 3.21138 5.72862 3.15946L4.61506 1.74983C4.60769 1.74029 4.59823 1.73257 4.58741 1.72726C4.57659 1.72194 4.5647 1.71918 4.55264 1.71918C4.54059 1.71918 4.52869 1.72194 4.51787 1.72726C4.50705 1.73257 4.4976 1.74029 4.49023 1.74983L3.37666 3.15946C3.36738 3.17126 3.36162 3.18543 3.36002 3.20035C3.35842 3.21527 3.36106 3.23034 3.36764 3.24383C3.37421 3.25732 3.38445 3.26868 3.39718 3.27662C3.40991 3.28456 3.42463 3.28875 3.43963 3.28872H4.17648V6.24938H3.48272C3.41643 6.24938 3.37887 6.32671 3.41975 6.37864L4.53331 7.78716C4.56535 7.82804 4.62721 7.82804 4.65814 7.78716L5.77171 6.37864C5.81258 6.32671 5.77613 6.24938 5.70874 6.24938H4.97189V3.28872H5.66566Z" fill="black" fill-opacity="0.7"/>
</svg>
