<svg width="24" height="25" viewBox="0 0 24 25" fill="none" xmlns="http://www.w3.org/2000/svg">
<path d="M12.3813 23.2218C18.303 23.2218 23.1032 18.4216 23.1032 12.4999C23.1032 6.57824 18.303 1.77805 12.3813 1.77805C6.45962 1.77805 1.65942 6.57824 1.65942 12.4999C1.65942 18.4216 6.45962 23.2218 12.3813 23.2218Z" stroke="black" stroke-width="1.60828" stroke-linecap="round" stroke-linejoin="round"/>
<path d="M12.3811 15.7162C13.2342 15.7162 14.0524 15.3773 14.6556 14.774C15.2588 14.1708 15.5977 13.3527 15.5977 12.4996C15.5977 11.6465 15.2588 10.8284 14.6556 10.2251C14.0524 9.62191 13.2342 9.28302 12.3811 9.28302C11.528 9.28302 10.7099 9.62191 10.1067 10.2251C9.50344 10.8284 9.16455 11.6465 9.16455 12.4996C9.16455 13.3527 9.50344 14.1708 10.1067 14.774C10.7099 15.3773 11.528 15.7162 12.3811 15.7162V15.7162Z" stroke="black" stroke-width="1.60828" stroke-linecap="round" stroke-linejoin="round"/>
<path d="M1.65942 12.5L9.16475 12.5M15.5979 12.5L23.1032 12.5" stroke="black" stroke-width="1.60828"/>
</svg>
