<svg width="18" height="18" viewBox="0 0 18 18" fill="none" xmlns="http://www.w3.org/2000/svg">
<path d="M9.09285 16.515C13.2796 16.515 16.6735 13.1212 16.6735 8.93438C16.6735 4.74758 13.2796 1.35373 9.09285 1.35373C4.90606 1.35373 1.51221 4.74758 1.51221 8.93438C1.51221 13.1212 4.90606 16.515 9.09285 16.515Z" stroke="black" stroke-width="1.1371" stroke-linecap="round" stroke-linejoin="round"/>
<path d="M9.0928 11.2086C9.69595 11.2086 10.2744 10.969 10.7009 10.5425C11.1274 10.116 11.367 9.53756 11.367 8.93441C11.367 8.33126 11.1274 7.75281 10.7009 7.32631C10.2744 6.89982 9.69595 6.66022 9.0928 6.66022C8.48964 6.66022 7.91119 6.89982 7.4847 7.32631C7.05821 7.75281 6.8186 8.33126 6.8186 8.93441C6.8186 9.53756 7.05821 10.116 7.4847 10.5425C7.91119 10.969 8.48964 11.2086 9.0928 11.2086V11.2086Z" stroke="black" stroke-width="1.1371" stroke-linecap="round" stroke-linejoin="round"/>
<path d="M1.51221 8.93439H6.81866M11.367 8.93439H16.6735" stroke="black" stroke-width="1.1371"/>
</svg>
