<svg width="25" height="25" viewBox="0 0 25 25" fill="none" xmlns="http://www.w3.org/2000/svg">
<path d="M12.0373 4.97487C16.1239 4.97487 19.4994 8.02981 19.9902 11.9862H15.9236C15.4729 10.2534 13.9003 8.98134 12.0373 8.98134C10.1743 8.98134 8.60177 10.2534 8.16106 11.9862H4.08447C4.57527 8.02981 7.95072 4.97487 12.0373 4.97487Z" fill="#FF0000"/>
<path d="M12.0372 2.97145C6.50825 2.97145 2.021 7.4587 2.021 12.9876C2.021 18.5166 6.50825 23.0038 12.0372 23.0038C17.5661 23.0038 22.0534 18.5166 22.0534 12.9876C22.0534 7.4587 17.5661 2.97145 12.0372 2.97145ZM12.0372 4.97469C16.1238 4.97469 19.4992 8.02962 19.99 11.986H15.9235C15.4727 10.2532 13.9002 8.98116 12.0372 8.98116C10.1742 8.98116 8.60163 10.2532 8.16092 11.986H4.08433C4.57512 8.02962 7.95058 4.97469 12.0372 4.97469ZM14.0404 12.9876C14.0404 14.0894 13.139 14.9909 12.0372 14.9909C10.9354 14.9909 10.0339 14.0894 10.0339 12.9876C10.0339 11.8859 10.9354 10.9844 12.0372 10.9844C13.139 10.9844 14.0404 11.8859 14.0404 12.9876ZM12.0372 21.0006C7.95058 21.0006 4.57512 17.9456 4.08433 13.9893H8.1509C8.59161 15.7221 10.1642 16.9941 12.0272 16.9941C13.8902 16.9941 15.4627 15.7221 15.9034 13.9893H19.97C19.4992 17.9456 16.1238 21.0006 12.0372 21.0006Z" fill="white"/>
</svg>
