<svg width="27" height="27" viewBox="0 0 27 27" fill="none" xmlns="http://www.w3.org/2000/svg">
<path d="M2.65924 13.4999C2.65924 14.9079 2.93657 16.3022 3.4754 17.603C4.01422 18.9038 4.80399 20.0858 5.79961 21.0814C6.79523 22.0771 7.9772 22.8668 9.27804 23.4056C10.5789 23.9445 11.9731 24.2218 13.3811 24.2218C14.7892 24.2218 16.1834 23.9445 17.4842 23.4056C18.7851 22.8668 19.967 22.0771 20.9627 21.0814C21.9583 20.0858 22.748 18.9038 23.2869 17.603C23.8257 16.3022 24.103 14.9079 24.103 13.4999L13.3811 13.4999L2.65924 13.4999Z" fill="white"/>
<path d="M24.1032 13.4999C24.1032 12.0919 23.8259 10.6977 23.2871 9.39685C22.7482 8.09601 21.9585 6.91404 20.9628 5.91842C19.9672 4.9228 18.7852 4.13303 17.4844 3.5942C16.1836 3.05538 14.7893 2.77805 13.3813 2.77805C11.9733 2.77805 10.5791 3.05538 9.27823 3.5942C7.97739 4.13303 6.79541 4.9228 5.79979 5.91842C4.80417 6.91404 4.0144 8.09601 3.47558 9.39685C2.93675 10.6977 2.65942 12.0919 2.65942 13.4999L13.3813 13.4999L24.1032 13.4999Z" fill="#FF0000"/>
<circle cx="13.3811" cy="13.4997" r="3.21657" fill="white"/>
<path d="M13.3813 24.2218C19.303 24.2218 24.1032 19.4216 24.1032 13.4999C24.1032 7.57824 19.303 2.77805 13.3813 2.77805C7.45962 2.77805 2.65942 7.57824 2.65942 13.4999C2.65942 19.4216 7.45962 24.2218 13.3813 24.2218Z" stroke="black" stroke-width="1.60828" stroke-linecap="round" stroke-linejoin="round"/>
<path d="M13.3811 16.7162C14.2342 16.7162 15.0524 16.3773 15.6556 15.774C16.2588 15.1708 16.5977 14.3527 16.5977 13.4996C16.5977 12.6465 16.2588 11.8284 15.6556 11.2251C15.0524 10.6219 14.2342 10.283 13.3811 10.283C12.528 10.283 11.7099 10.6219 11.1067 11.2251C10.5034 11.8284 10.1646 12.6465 10.1646 13.4996C10.1646 14.3527 10.5034 15.1708 11.1067 15.774C11.7099 16.3773 12.528 16.7162 13.3811 16.7162V16.7162Z" stroke="black" stroke-width="1.60828" stroke-linecap="round" stroke-linejoin="round"/>
<path d="M2.65942 13.5L10.1647 13.5M16.5979 13.5L24.1032 13.5" stroke="black" stroke-width="1.60828"/>
</svg>
