<svg width="8" height="9" viewBox="0 0 8 9" fill="none" xmlns="http://www.w3.org/2000/svg">
<path d="M4.05099 0.880615C3.46946 0.880615 2.99045 1.35962 2.99045 1.94115C2.99045 2.06559 3.01661 2.18296 3.05691 2.29467H1.28935L1.23385 2.58207L0.173312 7.88476L0.162354 7.91763L0.162354 8.65789H7.93963V7.91763L7.92867 7.88476L6.86813 2.58207L6.81263 2.29467H5.04507C5.08753 2.18157 5.11002 2.06195 5.11153 1.94115C5.11153 1.35962 4.63252 0.880615 4.05099 0.880615ZM4.05099 1.58764C4.25002 1.58764 4.4045 1.74248 4.4045 1.94115C4.4045 2.14018 4.24966 2.29467 4.05099 2.29467C3.85196 2.29467 3.69748 2.13983 3.69748 1.94115C3.69748 1.74213 3.85232 1.58764 4.05099 1.58764ZM1.86346 3.00169H6.23853L7.2326 7.95086H0.869378L1.86346 3.00169Z" fill="black" fill-opacity="0.7"/>
</svg>
